# xmcd CD database file
# Copyright (C) 1997 Ti Kan
# 
# Track frame offsets:
#     150
#     14530
#     26427
#     39160
#     51227
#     68130
#     82512
#     94940
#     109105
#     126967
# 
# Disc length: 1856 seconds
# 
# Revision: 1
# Processed by: cddbd v1.4b41PL1 Copyright (c) Steve Scherf et al.
# Submitted via: DiscPlay 4.0.4
# 
DISCID=74073e0a
DTITLE=Bobby Vinton - Greatest hits
DYEAR=1900
DGENRE=
TTITLE0=My melody of love
TTITLE1=Roses are red (my love)
TTITLE2=Blue velvet
TTITLE3=Mr. Lonely
TTITLE4=I've always loved you
TTITLE5=Blue on blue
TTITLE6=Sealed with a kiss
TTITLE7=Are you sincere
TTITLE8=What did you do with your old 45s
TTITLE9=Because of you
EXTD=
EXTT0=
EXTT1=
EXTT2=
EXTT3=
EXTT4=
EXTT5=
EXTT6=
EXTT7=
EXTT8=
EXTT9=
PLAYORDER=
